<svg width="685" height="30" viewBox="0 0 685 30" fill="none" xmlns="http://www.w3.org/2000/svg">
<path d="M287.834 23.1807H294.678V22.7891H292.297V16.38C292.297 15.5959 292.406 14.8962 292.597 14.2808C292.789 13.6926 293.008 13.1608 293.309 12.7413C293.583 12.3217 293.885 11.9858 294.213 11.7613C294.541 11.5376 294.842 11.4261 295.144 11.4261C295.774 11.4261 296.102 11.7335 296.102 12.3217C296.102 12.5733 296.074 12.7413 296.047 12.8814C296.02 13.0214 295.965 13.1329 295.938 13.2173C295.883 13.3288 295.828 13.441 295.801 13.5246C295.774 13.6368 295.746 13.7769 295.746 13.9449C295.746 14.4766 296.157 14.7282 296.95 14.7282C297.306 14.7282 297.635 14.6167 297.909 14.4202C298.182 14.2243 298.32 13.8048 298.32 13.1887C298.32 12.9092 298.265 12.629 298.182 12.3496C298.101 12.0694 297.936 11.8178 297.745 11.5934C297.553 11.3975 297.279 11.2017 296.978 11.0616C296.677 10.9223 296.294 10.8658 295.883 10.8658C295.308 10.8658 294.815 10.978 294.405 11.2017C293.994 11.4261 293.638 11.7056 293.337 12.0137C293.036 12.3496 292.817 12.6855 292.653 13.0493C292.488 13.4131 292.378 13.7204 292.297 14.0006H292.241V11.1738H287.834V11.5655H289.942V22.7891H287.834V23.1807Z" fill="white"/>
<path d="M306.533 19.1224C306.533 19.4862 306.506 19.9058 306.45 20.3539C306.369 20.83 306.259 21.2495 306.067 21.6412C305.876 22.0328 305.574 22.3688 305.218 22.6211C304.835 22.8727 304.342 23.0128 303.74 23.0128C303.329 23.0128 302.973 22.9284 302.727 22.7891C302.453 22.649 302.234 22.4531 302.097 22.2008C301.96 21.9771 301.851 21.7255 301.796 21.4175C301.741 21.1094 301.714 20.83 301.714 20.5498C301.714 19.9058 301.878 19.3461 302.18 18.8987C302.48 18.4785 302.946 18.1425 303.521 17.8909L305.574 17.0511C306.149 16.7995 306.45 16.5758 306.478 16.3235H306.533V19.1224ZM311.105 22.5646C310.913 22.7047 310.694 22.8169 310.475 22.9005C310.256 22.9849 310.037 23.0128 309.846 23.0128C309.544 23.0128 309.298 22.9284 309.134 22.7326C308.97 22.5367 308.887 22.1729 308.887 21.6412V14.6725C308.887 14.1686 308.805 13.6926 308.668 13.2173C308.531 12.7691 308.285 12.3496 307.929 11.9858C307.573 11.622 307.135 11.3418 306.56 11.1181C305.985 10.9223 305.301 10.81 304.452 10.81C303.767 10.81 303.137 10.8944 302.617 11.0616C302.07 11.2296 301.631 11.454 301.276 11.7335C300.92 12.0415 300.646 12.3775 300.455 12.7413C300.263 13.1051 300.181 13.4967 300.181 13.917C300.181 14.2808 300.263 14.5603 300.399 14.784C300.536 15.0084 300.92 15.1199 301.522 15.1199C301.878 15.1199 302.124 15.0363 302.316 14.8404C302.508 14.6725 302.59 14.4488 302.59 14.1965C302.59 14.0564 302.563 13.8048 302.508 13.4967C302.453 13.1887 302.426 12.8813 302.426 12.5733C302.426 12.0973 302.617 11.7335 303.028 11.5098C303.412 11.3139 303.905 11.2017 304.507 11.2017C304.972 11.2017 305.328 11.2582 305.601 11.3975C305.876 11.5376 306.094 11.7056 306.231 11.9579C306.369 12.2095 306.478 12.5175 306.533 12.8813C306.587 13.2451 306.615 13.6368 306.615 14.085C306.615 14.6446 306.587 15.092 306.506 15.4001C306.423 15.736 306.259 16.0155 306.04 16.212C305.821 16.4357 305.52 16.6316 305.137 16.7717C304.725 16.9118 304.232 17.1076 303.63 17.3034C303.11 17.4714 302.617 17.6394 302.124 17.7787C301.604 17.9188 301.166 18.1146 300.755 18.3391C300.345 18.5907 299.989 18.8987 299.743 19.2904C299.496 19.6821 299.359 20.2138 299.359 20.8578C299.359 21.1373 299.414 21.4453 299.496 21.7534C299.579 22.0893 299.743 22.3966 299.989 22.649C300.235 22.9005 300.591 23.125 301.057 23.2929C301.522 23.4888 302.124 23.5724 302.891 23.5724C303.576 23.5724 304.123 23.4888 304.561 23.3208C304.999 23.1807 305.355 22.9849 305.629 22.7326C305.876 22.5089 306.067 22.2573 306.204 22.005C306.341 21.7534 306.423 21.5576 306.506 21.3896H306.56C306.697 22.0893 306.971 22.6211 307.382 22.9849C307.765 23.3766 308.394 23.5724 309.27 23.5724C309.736 23.5724 310.147 23.4888 310.475 23.3487C310.804 23.2086 311.078 23.0685 311.324 22.8727L311.105 22.5646Z" fill="white"/>
<path d="M323.207 20.018C323.124 20.2417 323.015 20.5219 322.878 20.8857C322.741 21.2495 322.522 21.5854 322.221 21.9214C321.919 22.2852 321.509 22.5646 320.989 22.8169C320.469 23.0685 319.784 23.1807 318.991 23.1807C318.251 23.1807 317.649 23.0128 317.183 22.7047C316.717 22.3966 316.334 21.9771 316.088 21.4453C315.814 20.9136 315.622 20.2982 315.541 19.5985C315.431 18.8987 315.376 18.1425 315.376 17.3313C315.376 15.904 315.485 14.784 315.732 13.9727C315.951 13.1608 316.252 12.5454 316.608 12.1251C316.964 11.7056 317.347 11.454 317.786 11.3418C318.196 11.2582 318.607 11.2017 319.018 11.2017C319.565 11.2017 320.058 11.3139 320.469 11.5376C320.879 11.7899 321.099 12.1251 321.099 12.5454C321.099 12.797 321.043 13.1051 320.907 13.4689C320.77 13.8327 320.715 14.1686 320.715 14.4202C320.715 14.7561 320.852 14.9805 321.153 15.1199C321.427 15.26 321.728 15.3443 322.029 15.3443C322.495 15.3443 322.851 15.2042 323.097 14.9519C323.344 14.7003 323.453 14.3923 323.453 14.0006C323.453 13.4131 323.317 12.9371 323.042 12.5175C322.741 12.1251 322.385 11.7899 321.975 11.5376C321.536 11.2861 321.071 11.1181 320.551 10.978C320.031 10.8658 319.511 10.81 319.018 10.81C318.142 10.81 317.32 10.978 316.554 11.2861C315.76 11.622 315.102 12.0694 314.528 12.6569C313.953 13.2451 313.487 13.917 313.159 14.7004C312.803 15.4837 312.638 16.3235 312.638 17.247C312.638 18.4227 312.83 19.4026 313.24 20.2138C313.624 21.0258 314.116 21.669 314.746 22.1451C315.376 22.649 316.061 23.0128 316.8 23.2365C317.539 23.4602 318.278 23.5724 318.963 23.5724C319.867 23.5724 320.633 23.4323 321.208 23.125C321.783 22.8448 322.221 22.5089 322.577 22.1172C322.905 21.7534 323.152 21.3617 323.317 20.9693C323.453 20.6055 323.563 20.2982 323.617 20.1024L323.207 20.018Z" fill="white"/>
<path d="M324.985 23.1808H331.556V22.7891H329.448V16.4637C329.448 15.7082 329.558 15.0363 329.804 14.3924C330.023 13.7491 330.324 13.2173 330.735 12.7413C331.146 12.2653 331.611 11.9015 332.132 11.6499C332.652 11.3976 333.226 11.2582 333.801 11.2582C334.513 11.2582 335.033 11.482 335.39 11.958C335.718 12.4333 335.882 13.0215 335.882 13.7491V22.7891H333.774V23.1808H340.345V22.7891H338.237V14.6168C338.237 13.301 337.854 12.3496 337.114 11.7614C336.348 11.1739 335.362 10.8658 334.157 10.8658C333.418 10.8658 332.761 10.9781 332.241 11.2018C331.693 11.4541 331.227 11.7335 330.872 12.0416C330.488 12.3775 330.187 12.7134 329.968 13.0772C329.749 13.441 329.585 13.7491 329.503 14.0007H329.448V3.00158H324.985V3.39325H327.094V22.7891H324.985V23.1808Z" fill="white"/>
<path d="M345.054 15.8482C345.082 15.2321 345.164 14.6446 345.301 14.085C345.41 13.5246 345.575 13.0214 345.821 12.6012C346.068 12.1816 346.369 11.8178 346.779 11.5655C347.191 11.3139 347.683 11.2017 348.313 11.2017C348.669 11.2017 348.997 11.2582 349.299 11.3418C349.599 11.454 349.846 11.622 350.065 11.8736C350.256 12.1251 350.421 12.4332 350.558 12.8535C350.668 13.273 350.722 13.7769 350.722 14.4202V15.1199C350.722 15.3443 350.695 15.5959 350.668 15.8482H345.054ZM353.46 16.2399C353.46 15.2042 353.296 14.3644 352.967 13.6647C352.611 12.965 352.2 12.4053 351.708 11.9858C351.188 11.5655 350.64 11.286 350.065 11.0902C349.49 10.8944 348.943 10.81 348.423 10.81C347.574 10.81 346.752 10.978 346.013 11.3418C345.274 11.7056 344.617 12.2095 344.069 12.797C343.494 13.3852 343.056 14.085 342.755 14.8404C342.426 15.6238 342.262 16.4357 342.262 17.247C342.262 18.199 342.426 19.0667 342.728 19.8222C343.029 20.6055 343.467 21.2774 344.041 21.837C344.617 22.3966 345.274 22.8169 346.068 23.125C346.835 23.4323 347.683 23.5724 348.587 23.5724C349.49 23.5724 350.256 23.4323 350.832 23.125C351.407 22.8448 351.844 22.5089 352.2 22.1172C352.529 21.7534 352.776 21.3617 352.94 20.9693C353.077 20.6055 353.186 20.2982 353.241 20.1024L352.83 20.018C352.748 20.2417 352.639 20.5219 352.502 20.8857C352.365 21.2495 352.146 21.5854 351.844 21.9214C351.544 22.2852 351.133 22.5646 350.612 22.8169C350.092 23.0685 349.408 23.1807 348.614 23.1807C347.82 23.1807 347.163 23.0128 346.698 22.649C346.205 22.2852 345.849 21.837 345.602 21.3052C345.356 20.7735 345.191 20.1581 345.11 19.4862C345.027 18.8144 345 18.1711 345 17.555C345 17.247 345 16.9954 345.027 16.7995V16.2399H353.46Z" fill="white"/>
<path d="M355.487 23.1808H362.057V22.7891H359.949V3.00158H355.487V3.39325H357.595V22.7891H355.487V23.1808Z" fill="white"/>
<path d="M363.589 23.1808H370.161V22.7891H368.052V3.00158H363.589V3.39325H365.698V22.7891H363.589V23.1808Z" fill="white"/>
<path d="M371.693 23.1808H378.648V22.7891H376.156V11.5656H379.551V11.1739H376.156V7.28357C376.156 5.85624 376.43 4.82058 376.978 4.14873C377.525 3.4776 378.182 3.14167 378.921 3.14167C379.277 3.14167 379.606 3.19742 379.934 3.33751C380.263 3.4776 380.427 3.75705 380.427 4.17733C380.427 4.48465 380.345 4.76484 380.181 5.01642C379.989 5.26873 379.907 5.57679 379.907 5.88411C379.907 6.24791 380.072 6.50023 380.372 6.61171C380.674 6.72393 380.92 6.77968 381.166 6.77968C381.632 6.77968 381.988 6.64032 382.18 6.33226C382.371 6.0242 382.481 5.71615 382.481 5.35235C382.481 5.10077 382.426 4.82058 382.289 4.51326C382.152 4.2052 381.961 3.92502 381.687 3.67344C381.413 3.42112 381.057 3.19742 380.646 3.00158C380.209 2.83362 379.688 2.75 379.086 2.75C378.291 2.75 377.525 2.97371 376.813 3.42112C376.101 3.89714 375.499 4.42891 375.034 5.04503C374.842 5.26873 374.678 5.52031 374.541 5.77263C374.404 6.05208 374.267 6.36013 374.158 6.72393C374.048 7.08774 373.965 7.50728 373.911 7.9833C373.829 8.45933 373.802 9.04683 373.802 9.69082V11.1739H371.693V11.5656H373.802V22.7891H371.693V23.1808Z" fill="white"/>
<path d="M388.341 19.1224C388.341 19.4862 388.313 19.9058 388.258 20.3539C388.176 20.83 388.067 21.2495 387.875 21.6412C387.683 22.0328 387.382 22.3688 387.026 22.6211C386.643 22.8727 386.15 23.0128 385.548 23.0128C385.137 23.0128 384.781 22.9291 384.535 22.7891C384.261 22.649 384.042 22.4531 383.905 22.2008C383.769 21.9771 383.659 21.7255 383.604 21.4175C383.549 21.1094 383.522 20.83 383.522 20.5498C383.522 19.9058 383.686 19.3461 383.987 18.8987C384.289 18.4785 384.754 18.1425 385.329 17.8909L387.382 17.0511C387.958 16.7995 388.258 16.5758 388.286 16.3235H388.341V19.1224ZM392.913 22.5646C392.721 22.7047 392.502 22.8169 392.283 22.9005C392.064 22.9849 391.845 23.0128 391.654 23.0128C391.352 23.0128 391.106 22.9291 390.942 22.7326C390.777 22.5367 390.696 22.1729 390.696 21.6412V14.6725C390.696 14.1686 390.613 13.6926 390.476 13.2173C390.339 12.7691 390.093 12.3496 389.737 11.9858C389.381 11.622 388.943 11.3418 388.368 11.1181C387.793 10.9223 387.109 10.81 386.26 10.81C385.575 10.81 384.945 10.8944 384.425 11.0623C383.878 11.2296 383.44 11.454 383.084 11.7335C382.728 12.0415 382.454 12.3775 382.263 12.7413C382.071 13.1051 381.988 13.4967 381.988 13.917C381.988 14.2808 382.071 14.5603 382.208 14.7847C382.344 15.0084 382.728 15.1199 383.33 15.1199C383.686 15.1199 383.933 15.0363 384.125 14.8404C384.316 14.6725 384.398 14.4488 384.398 14.1965C384.398 14.0564 384.371 13.8048 384.316 13.4967C384.261 13.1894 384.234 12.8813 384.234 12.5733C384.234 12.0973 384.425 11.7335 384.836 11.5098C385.219 11.3139 385.712 11.2017 386.314 11.2017C386.78 11.2017 387.136 11.2582 387.41 11.3975C387.683 11.5376 387.902 11.7056 388.039 11.9579C388.176 12.2095 388.286 12.5175 388.341 12.8813C388.395 13.2451 388.422 13.6368 388.422 14.085C388.422 14.6446 388.395 15.092 388.313 15.4001C388.231 15.736 388.067 16.0155 387.848 16.212C387.629 16.4357 387.328 16.6316 386.944 16.7717C386.534 16.9118 386.041 17.1076 385.438 17.3034C384.918 17.4714 384.425 17.6394 383.933 17.7787C383.413 17.9188 382.974 18.1146 382.564 18.3391C382.153 18.5907 381.797 18.8987 381.551 19.2904C381.304 19.6821 381.168 20.2138 381.168 20.8578C381.168 21.1373 381.222 21.4453 381.304 21.7534C381.386 22.0893 381.551 22.3974 381.797 22.649C382.044 22.9005 382.4 23.125 382.865 23.2929C383.33 23.4888 383.933 23.5724 384.699 23.5724C385.384 23.5724 385.931 23.4888 386.37 23.3208C386.807 23.1807 387.163 22.9849 387.437 22.7326C387.683 22.5089 387.875 22.2573 388.012 22.005C388.149 21.7534 388.231 21.5576 388.313 21.3896H388.368C388.505 22.0893 388.778 22.6211 389.19 22.9849C389.573 23.3766 390.203 23.5724 391.079 23.5724C391.544 23.5724 391.955 23.4888 392.283 23.3487C392.612 23.2086 392.885 23.0685 393.132 22.8727L392.913 22.5646Z" fill="white"/>
<path d="M405.204 19.4026C405.149 20.2139 405.012 20.8857 404.793 21.4454C404.574 22.005 404.245 22.4253 403.808 22.7326C403.369 23.0407 402.767 23.1807 402.027 23.1807C401.261 23.1807 400.659 23.0128 400.193 22.6769C399.728 22.3409 399.345 21.8935 399.098 21.3617C398.852 20.83 398.66 20.2417 398.578 19.5985C398.496 18.9545 398.441 18.3105 398.441 17.6951C398.441 16.9675 398.468 16.3235 398.496 15.7918C398.523 15.26 398.55 14.8126 398.633 14.3923C398.715 13.9728 398.797 13.6368 398.934 13.3288C399.043 13.0215 399.207 12.7413 399.399 12.4897C399.673 12.1259 400.029 11.8178 400.467 11.5655C400.905 11.3139 401.453 11.2017 402.137 11.2017C402.767 11.2017 403.315 11.3418 403.725 11.5941C404.136 11.8457 404.437 12.2374 404.684 12.7134C404.902 13.1894 405.067 13.7769 405.149 14.4488C405.231 15.1485 405.286 15.904 405.286 16.7717C405.286 17.7509 405.258 18.6186 405.204 19.4026ZM393.978 23.1807H398.386V20.7456H398.441C398.523 20.9693 398.633 21.2495 398.77 21.5576C398.906 21.8656 399.126 22.173 399.426 22.481C399.7 22.7891 400.056 23.0407 400.495 23.2365C400.905 23.4609 401.425 23.5724 402.055 23.5724C402.849 23.5724 403.616 23.4045 404.355 23.0407C405.067 22.6769 405.697 22.2008 406.244 21.6133C406.792 21.0258 407.23 20.3261 407.558 19.542C407.859 18.7865 408.024 17.9753 408.024 17.1076C408.024 16.2678 407.859 15.4558 407.558 14.7004C407.257 13.9449 406.819 13.273 406.299 12.6855C405.779 12.1259 405.149 11.6777 404.465 11.3139C403.78 10.978 403.04 10.8101 402.247 10.8101C401.234 10.8101 400.439 11.0624 399.81 11.5655C399.18 12.0694 398.743 12.6855 398.496 13.4131H398.441V3.00154H393.978V3.39321H396.086V22.7891H393.978V23.1807Z" fill="white"/>
<path d="M410.189 23.1807H417.034V22.7891H414.652V16.38C414.652 15.5959 414.761 14.8962 414.953 14.2808C415.145 13.6926 415.364 13.1608 415.665 12.7413C415.939 12.3217 416.24 11.9858 416.569 11.7613C416.897 11.5376 417.198 11.4261 417.499 11.4261C418.129 11.4261 418.458 11.7335 418.458 12.3217C418.458 12.5733 418.43 12.7413 418.403 12.8814C418.375 13.0214 418.321 13.1329 418.294 13.2173C418.238 13.3288 418.184 13.441 418.156 13.5246C418.129 13.6368 418.102 13.7769 418.102 13.9449C418.102 14.4766 418.512 14.7282 419.307 14.7282C419.663 14.7282 419.99 14.6167 420.265 14.4202C420.539 14.2243 420.675 13.8048 420.675 13.1894C420.675 12.9092 420.62 12.629 420.539 12.3496C420.456 12.0694 420.292 11.8178 420.1 11.5941C419.909 11.3975 419.635 11.2017 419.334 11.0623C419.033 10.9223 418.649 10.8658 418.238 10.8658C417.664 10.8658 417.171 10.978 416.76 11.2017C416.349 11.4261 415.993 11.7056 415.693 12.0137C415.391 12.3496 415.172 12.6855 415.008 13.0493C414.844 13.4131 414.734 13.7212 414.652 14.0006H414.597V11.1738H410.189V11.5655H412.297V22.7891H410.189V23.1807Z" fill="white"/>
<path d="M423.575 5.68823C423.849 5.99629 424.178 6.13638 424.588 6.13638C424.998 6.13638 425.327 5.99629 425.628 5.68823C425.903 5.40878 426.039 5.07285 426.039 4.65257C426.039 4.23302 425.903 3.8971 425.628 3.58904C425.327 3.30959 424.998 3.16949 424.588 3.16949C424.178 3.16949 423.849 3.30959 423.575 3.58904C423.274 3.8971 423.137 4.23302 423.137 4.65257C423.137 5.07285 423.274 5.40878 423.575 5.68823ZM421.357 23.1807H427.928V22.7891H425.82V11.1738H421.357V11.5655H423.466V22.7891H421.357V23.1807Z" fill="white"/>
<path d="M268.083 15.2691C268.009 15.3248 267.813 15.4516 267.496 15.6502C267.179 15.8487 266.752 16.0571 266.217 16.2751C265.682 16.4938 265.049 16.6902 264.32 16.8645C263.591 17.0395 262.778 17.1267 261.88 17.1267C260.982 17.1267 260.169 17.0395 259.44 16.8645C258.711 16.6902 258.079 16.4938 257.543 16.2751C257.008 16.0571 256.582 15.8487 256.264 15.6502C255.948 15.4516 255.752 15.3248 255.677 15.2691L255.801 15.0787C256.798 15.7373 257.797 16.204 258.797 16.4778C259.798 16.7516 260.826 16.8885 261.88 16.8885C262.934 16.8885 263.962 16.7516 264.963 16.4778C265.964 16.204 266.962 15.7373 267.959 15.0787L268.083 15.2691Z" fill="white"/>
<path d="M255.599 15.0621C255.673 15.0064 255.869 14.8796 256.186 14.681C256.503 14.4824 256.93 14.2741 257.465 14.0557C258 13.8373 258.632 13.641 259.362 13.4663C260.091 13.2917 260.904 13.2045 261.802 13.2045C262.7 13.2045 263.513 13.2917 264.242 13.4663C264.971 13.641 265.603 13.8373 266.138 14.0557C266.674 14.2741 267.1 14.4824 267.418 14.681C267.734 14.8796 267.93 15.0064 268.005 15.0621C268.005 15.0621 265.885 14.1272 264.885 13.8534C263.884 13.5793 262.856 13.4427 261.802 13.4427C260.748 13.4427 259.72 13.5793 258.719 13.8534C257.718 14.1272 256.72 14.5938 255.723 15.2525L255.599 15.0621Z" fill="white"/>
<path d="M282.919 15.2392C282.847 15.2949 282.655 15.4217 282.345 15.6203C282.035 15.8189 281.618 16.0272 281.095 16.2453C280.572 16.464 279.953 16.6603 279.241 16.8347C278.528 17.0096 277.733 17.0968 276.855 17.0968C275.977 17.0968 275.182 17.0096 274.469 16.8347C273.756 16.6603 273.138 16.464 272.615 16.2453C272.092 16.0272 271.675 15.8189 271.364 15.6203C271.055 15.4217 270.863 15.2949 270.791 15.2392L270.874 15.1074C271.849 15.766 272.862 16.1742 273.841 16.4479C274.587 16.6566 275.505 16.8586 276.855 16.8586C277.886 16.8586 278.89 16.7217 279.869 16.4479C280.848 16.1742 281.824 15.7075 282.798 15.0489L282.919 15.2392Z" fill="white"/>
<path d="M271.342 14.6387C271.652 14.4401 272.069 14.2318 272.592 14.0134C273.115 13.795 273.733 13.5987 274.446 13.424C275.159 13.2494 275.954 13.1622 276.832 13.1622C277.71 13.1622 278.505 13.2494 279.218 13.424C279.93 13.5987 280.548 13.795 281.072 14.0134C281.595 14.2318 282.012 14.4401 282.322 14.6387C282.632 14.8373 282.824 14.9641 282.896 15.0198L282.775 15.2102C281.801 14.5515 280.825 14.0849 279.846 13.8111C278.867 13.537 277.863 13.4001 276.832 13.4001C275.801 13.4001 274.796 13.537 273.818 13.8111C272.84 14.0849 271.032 14.8373 271.342 14.6387Z" fill="white"/>
<path d="M262.36 19.2427C263.829 19.2427 264.997 19.1266 265.866 18.894C266.734 18.6615 267.402 18.3547 267.867 17.9742C268.332 17.5935 268.638 17.1498 268.782 16.6422C268.927 16.1349 268.999 15.5959 268.999 15.0247C268.999 14.4539 268.927 13.9148 268.782 13.4076C268.638 12.9 268.332 12.456 267.867 12.0755C267.402 11.6951 266.734 11.3889 265.866 11.1557C264.997 10.9235 263.829 10.807 262.36 10.807C261.119 10.807 260.08 10.8917 259.243 11.0607C258.405 11.2303 257.722 11.4886 257.195 11.8376C256.667 12.1866 256.29 12.6256 256.063 13.1536C255.835 13.6826 255.721 14.3063 255.721 15.0247C255.721 15.7438 255.835 16.3678 256.063 16.8958C256.29 17.4248 256.667 17.8631 257.195 18.2121C257.722 18.5608 258.405 18.8201 259.243 18.9891C260.08 19.1584 261.119 19.2427 262.36 19.2427ZM262.36 22.4141C261.347 22.4141 260.406 22.1869 259.537 21.7322C258.668 21.2778 257.919 20.6965 257.288 19.9879C256.657 19.2798 256.166 18.4872 255.814 17.6095C255.463 16.7322 255.287 15.8706 255.287 15.0247C255.287 14.1795 255.463 13.3179 255.814 12.4402C256.166 11.5632 256.657 10.7702 257.288 10.0619C257.919 9.35352 258.668 8.77261 259.537 8.31758C260.406 7.86318 261.347 7.63567 262.36 7.63567C263.333 7.63567 264.248 7.84745 265.106 8.26975C265.965 8.69331 266.714 9.2481 267.355 9.93473C267.997 10.622 268.503 11.4093 268.875 12.2977C269.248 13.1854 269.434 14.0948 269.434 15.0247C269.434 15.9555 269.248 16.864 268.875 17.7521C268.503 18.6401 267.997 19.4281 267.355 20.1147C266.714 20.8023 265.965 21.3571 265.106 21.7797C264.248 22.2029 263.333 22.4141 262.36 22.4141Z" fill="white"/>
<path d="M265.229 7.98077C265.229 9.48212 265.343 10.6763 265.57 11.5644C265.798 12.4521 266.098 13.134 266.47 13.6098C266.842 14.0856 267.276 14.3978 267.773 14.5454C268.269 14.6936 268.797 14.7672 269.355 14.7672C269.914 14.7672 270.441 14.6936 270.937 14.5454C271.434 14.3978 271.868 14.0856 272.24 13.6098C272.613 13.134 272.912 12.4521 273.14 11.5644C273.367 10.6763 273.481 9.48212 273.481 7.98077C273.481 6.71229 273.398 5.64992 273.233 4.79367C273.067 3.93711 272.815 3.23977 272.473 2.70041C272.132 2.16136 271.702 1.77587 271.186 1.54301C270.668 1.31046 270.058 1.19402 269.355 1.19402C268.652 1.19402 268.041 1.31046 267.525 1.54301C267.007 1.77587 266.579 2.16136 266.237 2.70041C265.896 3.23977 265.642 3.93711 265.477 4.79367C265.312 5.64992 265.229 6.71229 265.229 7.98077ZM262.127 7.98077C262.127 6.94515 262.349 5.98286 262.794 5.09482C263.238 4.20679 263.807 3.44085 264.5 2.79544C265.193 2.15097 265.968 1.64905 266.827 1.28906C267.685 0.930004 268.528 0.750007 269.355 0.750007C270.182 0.750007 271.025 0.930004 271.884 1.28906C272.742 1.64905 273.517 2.15097 274.21 2.79544C274.903 3.44085 275.472 4.20679 275.917 5.09482C276.361 5.98286 276.584 6.94515 276.584 7.98077C276.584 8.97485 276.377 9.91009 275.963 10.7874C275.549 11.6651 275.006 12.4316 274.335 13.0865C273.662 13.7423 272.892 14.2599 272.023 14.6404C271.155 15.0212 270.265 15.2115 269.355 15.2115C268.445 15.2115 267.556 15.0212 266.687 14.6404C265.819 14.2599 265.048 13.7423 264.376 13.0865C263.703 12.4316 263.161 11.6651 262.747 10.7874C262.333 9.91009 262.127 8.97485 262.127 7.98077Z" fill="white"/>
<path d="M265.229 22.1415C265.229 23.6428 265.343 24.8371 265.57 25.7251C265.798 26.6128 266.098 27.2947 266.47 27.7705C266.842 28.2463 267.276 28.5585 267.773 28.7061C268.269 28.8543 268.797 28.9279 269.355 28.9279C269.914 28.9279 270.441 28.8543 270.937 28.7061C271.434 28.5585 271.868 28.2463 272.24 27.7705C272.613 27.2947 272.912 26.6128 273.14 25.7251C273.367 24.8371 273.481 23.6428 273.481 22.1415C273.481 20.873 273.398 19.8106 273.233 18.9544C273.067 18.0978 272.815 17.4005 272.473 16.8611C272.132 16.3221 271.702 15.9366 271.186 15.7037C270.668 15.4712 270.058 15.3547 269.355 15.3547C268.652 15.3547 268.041 15.4712 267.525 15.7037C267.007 15.9366 266.579 16.3221 266.237 16.8611C265.896 17.4005 265.642 18.0978 265.477 18.9544C265.312 19.8106 265.229 20.873 265.229 22.1415ZM262.127 22.1415C262.127 21.1059 262.349 20.1436 262.794 19.2555C263.238 18.3675 263.807 17.6016 264.5 16.9562C265.193 16.3117 265.968 15.8098 266.827 15.4498C267.685 15.0907 268.528 14.9107 269.355 14.9107C270.182 14.9107 271.025 15.0907 271.884 15.4498C272.742 15.8098 273.517 16.3117 274.21 16.9562C274.903 17.6016 275.472 18.3675 275.917 19.2555C276.361 20.1436 276.584 21.1059 276.584 22.1415C276.584 23.1356 276.377 24.0708 275.963 24.9481C275.549 25.8258 275.006 26.5924 274.335 27.2472C273.662 27.903 272.892 28.4207 272.023 28.8011C271.155 29.1819 270.265 29.3723 269.355 29.3723C268.445 29.3723 267.556 29.1819 266.687 28.8011C265.819 28.4207 265.048 27.903 264.376 27.2472C263.703 26.5924 263.161 25.8258 262.747 24.9481C262.333 24.0708 262.127 23.1356 262.127 22.1415Z" fill="white"/>
<path d="M276.216 19.2427C277.684 19.2427 278.853 19.1266 279.721 18.894C280.59 18.6615 281.257 18.3547 281.722 17.9742C282.188 17.5935 282.493 17.1498 282.638 16.6422C282.783 16.1349 282.855 15.5959 282.855 15.0247C282.855 14.4539 282.783 13.9148 282.638 13.4076C282.493 12.9 282.188 12.456 281.722 12.0755C281.257 11.6951 280.59 11.3889 279.721 11.1557C278.853 10.9235 277.684 10.807 276.216 10.807C274.975 10.807 273.936 10.8917 273.098 11.0607C272.26 11.2303 271.578 11.4886 271.05 11.8376C270.523 12.1866 270.146 12.6256 269.918 13.1536C269.69 13.6826 269.577 14.3063 269.577 15.0247C269.577 15.7438 269.69 16.3678 269.918 16.8958C270.146 17.4248 270.523 17.8631 271.05 18.2121C271.578 18.5608 272.26 18.8201 273.098 18.9891C273.936 19.1584 274.975 19.2427 276.216 19.2427ZM276.216 22.4141C275.203 22.4141 274.261 22.1869 273.393 21.7322C272.524 21.2778 271.775 20.6965 271.143 19.9879C270.513 19.2798 270.022 18.4872 269.67 17.6095C269.318 16.7322 269.142 15.8706 269.142 15.0247C269.142 14.1795 269.318 13.3179 269.67 12.4402C270.022 11.5632 270.513 10.7702 271.143 10.0619C271.775 9.35352 272.524 8.77261 273.393 8.31758C274.261 7.86318 275.203 7.63567 276.216 7.63567C277.188 7.63567 278.103 7.84745 278.961 8.26975C279.82 8.69331 280.57 9.2481 281.211 9.93473C281.852 10.622 282.358 11.4093 282.731 12.2977C283.103 13.1854 283.289 14.0948 283.289 15.0247C283.289 15.9555 283.103 16.864 282.731 17.7521C282.358 18.6401 281.852 19.4281 281.211 20.1147C280.57 20.8023 279.82 21.3571 278.961 21.7797C278.103 22.2029 277.188 22.4141 276.216 22.4141Z" fill="white"/>
</svg>
